<?xml version="1.0" encoding="UTF-8" standalone="no"?><!-- Generator: Gravit.io --><svg xmlns="http://www.w3.org/2000/svg" xmlns:xlink="http://www.w3.org/1999/xlink" style="isolation:isolate" viewBox="0 0 200 200" width="200pt" height="200pt"><defs><clipPath id="_clipPath_FwgQ41MKYSMZ6Z48i8ia75xQ2c6CdWwN"><rect width="200" height="200"/></clipPath></defs><g clip-path="url(#_clipPath_FwgQ41MKYSMZ6Z48i8ia75xQ2c6CdWwN)"><rect width="200" height="200" style="fill:rgb(0,0,0)" fill-opacity="0"/><circle vector-effect="non-scaling-stroke" cx="100" cy="100" r="88.75" fill="rgb(255,255,255)" stroke-width="1" stroke="rgb(209,209,209)" stroke-linejoin="miter" stroke-linecap="square" stroke-miterlimit="3"/><clipPath id="_clipPath_YyRifYXGktG1Ka35ZRK69abs2JQqj4Lm"><circle vector-effect="non-scaling-stroke" cx="100" cy="100" r="88.75" fill="rgb(255,255,255)" stroke-width="1" stroke="rgb(209,209,209)" stroke-linejoin="miter" stroke-linecap="square" stroke-miterlimit="3"/></clipPath><g clip-path="url(#_clipPath_YyRifYXGktG1Ka35ZRK69abs2JQqj4Lm)"><path d=" M 100 57.341 C 76.457 57.341 57.341 76.457 57.341 100 C 57.341 112.03 62.327 122.903 70.352 130.661 L 70.352 130.714 C 70.531 131.073 70.838 131.354 71.205 131.515 C 71.233 131.54 71.285 131.54 71.313 131.568 L 71.364 131.568 C 78.938 138.439 88.984 142.659 100 142.659 C 110.611 142.668 120.843 138.712 128.689 131.568 L 128.74 131.515 C 129.127 131.368 129.455 131.081 129.648 130.714 L 129.648 130.661 C 137.673 122.903 142.659 112.03 142.659 100 C 142.659 76.457 123.543 57.341 100 57.341 Z  M 100 60.754 C 121.696 60.754 139.246 78.304 139.246 100 C 139.246 110.765 134.946 120.536 127.942 127.622 C 124.63 125.114 120.662 123.769 117.277 122.396 C 113.531 120.877 110.832 119.382 110.025 117.383 L 110.025 117.224 C 112.997 116.837 115.837 116.343 117.864 115.57 C 119.089 115.105 120.13 114.584 120.956 113.917 C 121.783 113.252 122.503 112.337 122.503 111.091 C 122.516 110.608 122.322 110.143 121.969 109.812 C 121.763 109.624 121.364 108.899 121.116 107.626 C 120.869 106.353 120.736 104.633 120.69 102.665 C 120.596 98.741 120.783 93.826 120.529 89.014 C 120.277 84.203 119.65 79.464 117.598 75.739 C 115.61 72.13 111.944 69.644 106.877 69.658 C 105.244 68.525 103.03 67.738 100.159 67.738 L 100.051 67.738 C 93.14 68.238 88.361 71.024 85.388 74.99 C 82.414 78.956 81.182 83.928 80.589 88.854 C 79.995 93.779 80.068 98.719 79.896 102.664 C 79.809 104.638 79.635 106.39 79.362 107.677 C 79.089 108.963 78.703 109.704 78.403 109.97 C 78.029 110.29 77.815 110.758 77.816 111.25 C 77.816 112.461 78.502 113.622 79.362 114.342 C 80.222 115.062 81.249 115.495 82.455 115.89 C 84.428 116.528 87.161 116.855 89.973 117.221 C 89.967 117.282 89.98 117.314 89.973 117.381 C 89.166 119.381 86.467 120.874 82.721 122.394 C 79.336 123.768 75.369 125.114 72.057 127.621 C 64.791 120.267 60.728 110.338 60.754 100 C 60.754 78.304 78.304 60.754 100 60.754 Z  M 100.16 71.152 L 100.266 71.152 C 102.773 71.178 104.64 72.006 105.385 72.645 C 105.716 72.912 106.135 73.046 106.559 73.019 C 110.864 72.866 113.018 74.504 114.61 77.391 C 116.204 80.276 116.878 84.575 117.118 89.175 C 117.357 93.775 117.183 98.62 117.277 102.72 C 117.323 104.766 117.451 106.651 117.756 108.266 C 117.97 109.371 118.343 110.325 118.877 111.197 C 118.83 111.245 118.917 111.178 118.823 111.252 C 118.43 111.564 117.651 111.985 116.637 112.371 C 114.61 113.144 111.603 113.85 108.052 114.185 C 107.567 114.223 107.121 114.466 106.826 114.852 C 106.531 115.239 106.414 115.732 106.505 116.21 C 106.639 116.889 106.665 117.405 106.665 117.917 C 106.665 118.116 106.706 118.316 106.773 118.504 C 108.211 122.275 112.105 123.962 115.997 125.542 C 119.236 126.856 122.648 128.136 125.329 129.967 C 118.256 135.97 109.277 139.259 100 139.246 C 90.723 139.259 81.744 135.97 74.671 129.967 C 77.35 128.134 80.763 126.855 84.003 125.542 C 87.895 123.962 91.789 122.276 93.227 118.504 C 93.275 118.403 93.308 118.29 93.335 118.183 C 93.523 117.07 93.494 116.403 93.494 115.891 C 93.502 115.026 92.86 114.292 92.001 114.185 C 88.448 113.763 85.462 113.263 83.523 112.637 C 82.556 112.325 81.87 111.944 81.551 111.678 C 81.416 111.564 81.431 111.571 81.391 111.518 C 82.022 110.596 82.471 109.559 82.723 108.371 C 83.07 106.738 83.223 104.873 83.31 102.826 C 83.489 98.727 83.443 93.908 84.003 89.282 C 84.563 84.656 85.749 80.29 88.163 77.07 C 90.562 73.872 94.094 71.611 100.159 71.152 L 100.16 71.152 Z " fill="rgb(185,185,185)" vector-effect="non-scaling-stroke" stroke-width="1" stroke="rgb(185,185,185)" stroke-linejoin="miter" stroke-linecap="butt" stroke-miterlimit="4"/></g><circle vector-effect="non-scaling-stroke" cx="100" cy="100" r="88.75" fill="transparent" stroke-width="1" stroke="rgb(209,209,209)" stroke-linejoin="miter" stroke-linecap="square" stroke-miterlimit="3"/></g></svg>