<?xml version="1.0" encoding="UTF-8" standalone="no"?><!-- Generator: Gravit.io --><svg xmlns="http://www.w3.org/2000/svg" xmlns:xlink="http://www.w3.org/1999/xlink" style="isolation:isolate" viewBox="0 0 828 828" width="828pt" height="828pt"><defs><clipPath id="_clipPath_qxAKrfJRoIg6fHzAsotoKogtCGRXuCxv"><rect width="828" height="828"/></clipPath></defs><g clip-path="url(#_clipPath_qxAKrfJRoIg6fHzAsotoKogtCGRXuCxv)"><path d="M 161.778 216.453 L 707.685 216.453 C 745.941 216.453 777 247.512 777 285.768 L 777 542.232 C 777 580.488 745.941 611.547 707.685 611.547 L 92.463 611.547 L 92.463 285.768 C 92.463 247.512 123.522 216.453 161.778 216.453 Z" style="stroke:none;fill:#FFFFFF;stroke-miterlimit:10;"/><path d="M 161.778 216.453 L 707.685 216.453 C 745.941 216.453 777 247.512 777 285.768 L 777 542.232 C 777 580.488 745.941 611.547 707.685 611.547 L 92.463 611.547 L 92.463 285.768 C 92.463 247.512 123.522 216.453 161.778 216.453 Z" style="fill:none;stroke:#D1D1D1;stroke-width:2;stroke-linecap:square;stroke-miterlimit:2;"/><clipPath id="_clipPath_byNkhwOFVYOeFEkXwEr6bJbl1BeWM8PT"><path d="M 161.778 216.453 L 707.685 216.453 C 745.941 216.453 777 247.512 777 285.768 L 777 542.232 C 777 580.488 745.941 611.547 707.685 611.547 L 92.463 611.547 L 92.463 285.768 C 92.463 247.512 123.522 216.453 161.778 216.453 Z" style="stroke:none;fill:#FFFFFF;stroke-miterlimit:10;"/><path d="M 161.778 216.453 L 707.685 216.453 C 745.941 216.453 777 247.512 777 285.768 L 777 542.232 C 777 580.488 745.941 611.547 707.685 611.547 L 92.463 611.547 L 92.463 285.768 C 92.463 247.512 123.522 216.453 161.778 216.453 Z" style="fill:none;stroke:#D1D1D1;stroke-width:2;stroke-linecap:square;stroke-miterlimit:2;"/></clipPath><g clip-path="url(#_clipPath_byNkhwOFVYOeFEkXwEr6bJbl1BeWM8PT)"><text transform="matrix(6.931,0,0,6.931,151.456,302.494)" style="font-family:'Open Sans';font-weight:400;font-size:6px;font-style:normal;fill:#8b8b8b;stroke:none;">Local Seguro</text><text transform="matrix(6.931,0,0,6.931,151.342,457.987)" style="font-family:'Open Sans';font-weight:400;font-size:6px;font-style:normal;fill:#8b8b8b;stroke:none;">Área movimentada, </text><text transform="matrix(6.931,0,0,6.931,151.342,514.624)" style="font-family:'Open Sans';font-weight:400;font-size:6px;font-style:normal;fill:#8b8b8b;stroke:none;">bastante comércios abertos </text><text transform="matrix(6.931,0,0,6.931,151.342,571.26)" style="font-family:'Open Sans';font-weight:400;font-size:6px;font-style:normal;fill:#8b8b8b;stroke:none;">esse hora</text><path d="M 178.756 329.085 L 573.463 329.085 C 583.949 329.085 592.463 337.599 592.463 348.085 L 592.463 373.65 C 592.463 384.136 583.949 392.65 573.463 392.65 L 178.756 392.65 C 168.269 392.65 159.756 384.136 159.756 373.65 L 159.756 348.085 C 159.756 337.599 168.269 329.085 178.756 329.085 Z" style="stroke:none;fill:#4AE8AB;stroke-linecap:square;stroke-miterlimit:2;"/><path d="M 177.155 320.425 L 689.563 320.425 C 704.756 320.425 717.092 332.76 717.092 347.954 L 717.092 373.781 C 717.092 388.975 704.756 401.31 689.563 401.31 L 177.155 401.31 C 161.961 401.31 149.626 388.975 149.626 373.781 L 149.626 347.954 C 149.626 332.76 161.961 320.425 177.155 320.425 Z" style="fill:none;stroke:#D1D1D1;stroke-width:0.5;stroke-linecap:square;stroke-miterlimit:2;"/></g></g></svg>