<?xml version="1.0" encoding="UTF-8" standalone="no"?><!-- Generator: Gravit.io --><svg xmlns="http://www.w3.org/2000/svg" xmlns:xlink="http://www.w3.org/1999/xlink" style="isolation:isolate" viewBox="0 0 828 828" width="828pt" height="828pt"><defs><clipPath id="_clipPath_xmTDscxDi2qe6S8Ai5h2aW2WIlJmn96l"><rect width="828" height="828"/></clipPath></defs><g clip-path="url(#_clipPath_xmTDscxDi2qe6S8Ai5h2aW2WIlJmn96l)"><g><path d=" M 506.667 384.511 C 506.667 384.511 525.585 368.233 545.991 350.952 C 531.527 302.177 486.423 266.554 432.945 266.554 C 379.466 266.554 334.362 302.177 319.898 350.952 C 333.045 362.093 346.153 373.279 359.222 384.511 L 314.988 590.935 C 314.988 590.935 337.105 620.424 432.945 620.424 C 436.602 634.153 554.569 604.674 550.901 590.935 L 506.667 384.511 Z " fill="rgb(121,142,238)"/><path d=" M 491.923 266.554 C 491.923 266.554 477.178 251.81 432.945 251.81 C 432.945 251.81 373.966 266.554 373.966 266.554 L 373.966 133.853 L 491.923 133.853 L 491.923 266.554 Z " fill="rgb(191,54,12)"/><path d=" M 501.197 613.907 L 491.923 753.125 L 373.966 753.125 L 364.692 613.907 C 381.634 617.681 403.854 620.424 432.945 620.424 C 462.036 620.424 484.256 617.681 501.197 613.907 Z  M 359.222 384.511 C 359.222 384.511 340.304 368.233 319.898 350.952 C 316.652 361.843 314.998 373.146 314.988 384.511 L 314.988 502.467 L 331.576 513.526 L 359.222 384.511 Z  M 545.991 350.952 C 525.585 368.233 506.667 384.511 506.667 384.511 L 534.314 513.526 L 550.901 502.467 L 550.901 384.511 C 550.901 372.848 549.147 361.598 545.991 350.952 Z  M 432.945 251.81 C 473.61 251.81 506.667 218.752 506.667 178.087 C 506.667 137.421 473.61 104.364 432.945 104.364 C 392.279 104.364 359.222 137.421 359.222 178.087 C 359.222 218.752 392.279 251.81 432.945 251.81 Z " fill="rgb(244,190,187)"/><path d=" M 432.945 74.875 C 388.151 74.875 329.733 89.62 329.733 222.321 L 373.966 266.554 L 373.966 170.715 L 462.434 119.109 L 491.923 155.97 L 491.923 266.554 L 536.157 222.321 C 536.157 192.655 536.157 89.62 462.434 89.62 L 455.061 74.875 L 432.945 74.875 Z " fill="rgb(238,127,121)"/><path d=" M 403.455 266.554 L 403.455 245.573 C 412.494 249.539 422.446 251.81 432.945 251.81 C 443.443 251.81 453.395 249.539 462.434 245.573 L 462.434 266.554 C 462.434 266.554 463.053 296.043 432.34 296.043 C 401.627 296.043 403.455 266.554 403.455 266.554 Z  M 418.2 753.125 L 447.689 753.125 L 432.945 620.424 L 418.2 753.125 Z " fill="rgb(255,208,227)"/></g></g></svg>