<?xml version="1.0" encoding="UTF-8" standalone="no"?><!-- Generator: Gravit.io --><svg xmlns="http://www.w3.org/2000/svg" xmlns:xlink="http://www.w3.org/1999/xlink" style="isolation:isolate" viewBox="0 0 828 828" width="828pt" height="828pt"><defs><clipPath id="_clipPath_20I60qNfxpKCNixHgjn5K4VUGzs6Tp2d"><rect width="828" height="828"/></clipPath></defs><g clip-path="url(#_clipPath_20I60qNfxpKCNixHgjn5K4VUGzs6Tp2d)"><path d="M 80.8 166.663 L 747.2 166.663 C 762.207 166.663 774.391 178.846 774.391 193.853 L 774.391 634.147 C 774.391 649.154 762.207 661.337 747.2 661.337 L 80.8 661.337 C 65.793 661.337 53.609 649.154 53.609 634.147 L 53.609 193.853 C 53.609 178.846 65.793 166.663 80.8 166.663 Z" style="stroke:none;fill:#FFFFFF;stroke-miterlimit:10;"/><path d="M 80.8 166.663 L 747.2 166.663 C 762.207 166.663 774.391 178.846 774.391 193.853 L 774.391 634.147 C 774.391 649.154 762.207 661.337 747.2 661.337 L 80.8 661.337 C 65.793 661.337 53.609 649.154 53.609 634.147 L 53.609 193.853 C 53.609 178.846 65.793 166.663 80.8 166.663 Z" style="fill:none;stroke:#EBEBEB;stroke-width:5;stroke-linecap:square;stroke-miterlimit:2;"/><clipPath id="_clipPath_jCNQKxBFme3Js5Ry7BrrKSoPZPhht52j"><path d="M 80.8 166.663 L 747.2 166.663 C 762.207 166.663 774.391 178.846 774.391 193.853 L 774.391 634.147 C 774.391 649.154 762.207 661.337 747.2 661.337 L 80.8 661.337 C 65.793 661.337 53.609 649.154 53.609 634.147 L 53.609 193.853 C 53.609 178.846 65.793 166.663 80.8 166.663 Z" style="stroke:none;fill:#FFFFFF;stroke-miterlimit:10;"/><path d="M 80.8 166.663 L 747.2 166.663 C 762.207 166.663 774.391 178.846 774.391 193.853 L 774.391 634.147 C 774.391 649.154 762.207 661.337 747.2 661.337 L 80.8 661.337 C 65.793 661.337 53.609 649.154 53.609 634.147 L 53.609 193.853 C 53.609 178.846 65.793 166.663 80.8 166.663 Z" style="fill:none;stroke:#EBEBEB;stroke-width:5;stroke-linecap:square;stroke-miterlimit:2;"/></clipPath><g clip-path="url(#_clipPath_jCNQKxBFme3Js5Ry7BrrKSoPZPhht52j)"><text transform="matrix(2.187,0,0,2.187,150.825,405.097)" style="font-family:'Open Sans';font-weight:400;font-size:24px;font-style:normal;fill:#747474;stroke:none;">Classificar local como </text><text transform="matrix(2.187,0,0,2.187,112.872,476.57)" style="font-family:'Open Sans';font-weight:400;font-size:24px;font-style:normal;fill:#747474;stroke:none;">seguro para locomoção?</text></g></g></svg>