<?xml version="1.0" encoding="UTF-8" standalone="no"?><!-- Generator: Gravit.io --><svg xmlns="http://www.w3.org/2000/svg" xmlns:xlink="http://www.w3.org/1999/xlink" style="isolation:isolate" viewBox="0 0 200 200" width="200pt" height="200pt"><defs><clipPath id="_clipPath_Wtq0kKk0e3uJ4pZDlBc1eDXhLjbDkjFO"><rect width="200" height="200"/></clipPath></defs><g clip-path="url(#_clipPath_Wtq0kKk0e3uJ4pZDlBc1eDXhLjbDkjFO)"><rect width="200" height="200" style="fill:rgb(0,0,0)" fill-opacity="0"/><circle vector-effect="non-scaling-stroke" cx="100" cy="100" r="88.74999999999997" fill="rgb(255,255,255)" stroke-width="1" stroke="rgb(209,209,209)" stroke-linejoin="miter" stroke-linecap="square" stroke-miterlimit="3"/><clipPath id="_clipPath_Dj8dLtOuQRqtBAjLe4ETg3ie8J8rmUaB"><circle vector-effect="non-scaling-stroke" cx="100" cy="100" r="88.74999999999997" fill="rgb(255,255,255)" stroke-width="1" stroke="rgb(209,209,209)" stroke-linejoin="miter" stroke-linecap="square" stroke-miterlimit="3"/></clipPath><g clip-path="url(#_clipPath_Dj8dLtOuQRqtBAjLe4ETg3ie8J8rmUaB)"><g><path d=" M 55.699 142.783 C 44.967 131.471 39.076 116.72 39.076 101.068 C 39.076 85.415 44.967 70.664 55.699 59.352 L 72.269 75.923 C 65.951 82.805 62.495 91.671 62.495 101.068 C 62.495 110.464 65.955 119.333 72.269 126.212 L 55.699 142.783 Z " fill="rgb(247,143,143)"/><path d=" M 55.745 61.716 L 70.02 75.992 C 64.079 82.994 60.83 91.885 60.856 101.068 C 60.856 110.35 64.089 119.14 70.02 126.143 L 55.745 140.419 C 46.03 129.618 40.674 115.594 40.715 101.068 C 40.715 86.402 46.03 72.553 55.745 61.716 Z  M 55.682 57.018 C 43.981 68.688 37.415 84.542 37.436 101.068 C 37.415 117.594 43.981 133.447 55.682 145.117 L 74.561 126.238 C 67.875 119.57 64.122 110.511 64.135 101.068 C 64.135 91.238 68.118 82.34 74.561 75.897 L 55.682 57.018 Z " fill="rgb(199,67,67)"/><path d=" M 127.194 126.212 C 133.513 119.333 136.968 110.464 136.968 101.068 C 136.968 91.671 133.509 82.805 127.194 75.923 L 143.765 59.352 C 154.496 70.664 160.388 85.415 160.388 101.068 C 160.388 116.72 154.496 131.471 143.765 142.783 L 127.194 126.212 Z " fill="rgb(247,143,143)"/><path d=" M 143.719 61.716 C 153.433 72.517 158.79 86.541 158.749 101.068 C 158.749 115.733 153.434 129.583 143.719 140.419 L 129.444 126.143 C 135.384 119.141 138.634 110.25 138.608 101.068 C 138.634 91.885 135.384 82.994 129.444 75.992 L 143.719 61.716 Z  M 143.782 57.018 L 124.903 75.897 C 131.589 82.565 135.342 91.624 135.329 101.068 C 135.329 110.897 131.345 119.796 124.903 126.238 L 143.782 145.117 C 155.483 133.447 162.049 117.594 162.028 101.068 C 162.049 84.542 155.483 68.688 143.782 57.018 L 143.782 57.018 Z " fill="rgb(199,67,67)"/><circle vector-effect="non-scaling-stroke" cx="99.73190083403144" cy="101.06764725079351" r="14.754247844205835" fill="rgb(247,143,143)"/><path d=" M 99.732 87.953 C 106.965 87.953 112.847 93.835 112.847 101.068 C 112.847 108.301 106.965 114.183 99.732 114.183 C 92.499 114.183 86.617 108.301 86.617 101.068 C 86.617 93.835 92.499 87.953 99.732 87.953 Z  M 99.732 84.674 C 90.677 84.675 83.337 92.016 83.338 101.071 C 83.339 110.126 90.68 117.465 99.735 117.465 C 108.79 117.464 116.13 110.122 116.129 101.068 C 116.128 92.013 108.787 84.673 99.732 84.674 Z " fill="rgb(199,67,67)"/><path d=" M 55.699 142.783 C 44.967 131.471 39.076 116.72 39.076 101.068 C 39.076 85.415 44.967 70.664 55.699 59.352 L 71.935 75.589 C 65.532 82.563 62.027 91.55 62.027 101.068 C 62.027 110.586 65.532 119.573 71.935 126.547 L 55.699 142.783 Z " fill="rgb(247,143,143)"/><path d=" M 55.745 61.716 L 69.686 75.658 C 63.669 82.753 60.387 91.658 60.387 101.068 C 60.387 110.478 63.669 119.383 69.686 126.474 L 55.745 140.416 C 46.03 129.616 40.674 115.593 40.715 101.068 C 40.715 86.402 46.03 72.553 55.745 61.716 Z  M 55.682 57.018 C 44.41 68.29 37.436 83.864 37.436 101.068 C 37.436 118.271 44.41 133.845 55.682 145.117 L 74.23 126.57 C 67.455 119.814 63.653 110.636 63.666 101.068 C 63.666 91.107 67.702 82.09 74.23 75.566 L 55.682 57.018 Z " fill="rgb(199,67,67)"/><path d=" M 127.529 126.547 C 133.932 119.573 137.437 110.586 137.437 101.068 C 137.437 91.55 133.932 82.563 127.529 75.589 L 143.768 59.349 C 154.5 70.667 160.388 85.415 160.388 101.068 C 160.388 116.72 154.496 131.471 143.765 142.783 L 127.529 126.547 Z " fill="rgb(247,143,143)"/><path d=" M 143.719 61.716 C 153.434 72.553 158.749 86.402 158.749 101.068 C 158.749 115.733 153.434 129.583 143.719 140.419 L 129.778 126.478 C 135.795 119.383 139.077 110.478 139.077 101.068 C 139.077 91.658 135.795 82.753 129.778 75.661 L 143.719 61.716 Z  M 143.782 57.018 L 125.234 75.566 C 132.009 82.321 135.811 91.5 135.798 101.068 C 135.798 111.028 131.762 120.045 125.234 126.57 L 143.782 145.117 C 155.054 133.845 162.028 118.271 162.028 101.068 C 162.028 83.864 155.054 68.29 143.782 57.018 Z " fill="rgb(199,67,67)"/></g></g><circle vector-effect="non-scaling-stroke" cx="100" cy="100" r="88.74999999999997" fill="transparent" stroke-width="1" stroke="rgb(209,209,209)" stroke-linejoin="miter" stroke-linecap="square" stroke-miterlimit="3"/></g></svg>