<?xml version="1.0" encoding="UTF-8" standalone="no"?><!-- Generator: Gravit.io --><svg xmlns="http://www.w3.org/2000/svg" xmlns:xlink="http://www.w3.org/1999/xlink" style="isolation:isolate" viewBox="0 0 828 828" width="828pt" height="828pt"><defs><clipPath id="_clipPath_YiGknLimFKv4vx9r9xu3o8Hj8DQjBmx2"><rect width="828" height="828"/></clipPath></defs><g clip-path="url(#_clipPath_YiGknLimFKv4vx9r9xu3o8Hj8DQjBmx2)"><circle vector-effect="non-scaling-stroke" cx="414" cy="414" r="386.70781813915687" fill="rgb(255,255,255)" stroke-width="1" stroke="rgb(209,209,209)" stroke-linejoin="miter" stroke-linecap="square" stroke-miterlimit="3"/><clipPath id="_clipPath_HZdlgdoBpYO4Dt0l6OzpysTsuHcR2fte"><circle vector-effect="non-scaling-stroke" cx="414" cy="414" r="386.70781813915687" fill="rgb(255,255,255)" stroke-width="1" stroke="rgb(209,209,209)" stroke-linejoin="miter" stroke-linecap="square" stroke-miterlimit="3"/></clipPath><g clip-path="url(#_clipPath_HZdlgdoBpYO4Dt0l6OzpysTsuHcR2fte)"><path d=" M 463.277 181.53 L 335.021 303.216 C 327.414 310.464 323.095 320.246 322.987 330.474 L 322.987 523.772 C 322.987 544.763 340.942 561.799 363.067 561.799 L 537.409 561.799 C 553.27 561.799 567.72 552.774 574.154 538.983 L 638.282 402.086 C 641.788 394.481 643.626 386.328 643.626 377.992 L 643.626 358.989 C 643.626 337.998 622.998 318.427 600.874 318.427 L 472.618 318.427 C 472.618 318.427 503.357 240.305 503.357 226.534 C 503.357 190.88 463.256 181.53 463.256 181.53 L 463.277 181.53 Z  M 216.107 318.427 L 216.107 561.799 L 280.235 561.799 L 280.235 318.427 L 216.107 318.427 Z " fill="rgb(129,225,172)"/></g><circle vector-effect="non-scaling-stroke" cx="414" cy="414" r="386.70781813915687" fill="transparent" stroke-width="1" stroke="rgb(209,209,209)" stroke-linejoin="miter" stroke-linecap="square" stroke-miterlimit="3"/></g></svg>