<?xml version="1.0" encoding="UTF-8" standalone="no"?><!-- Generator: Gravit.io --><svg xmlns="http://www.w3.org/2000/svg" xmlns:xlink="http://www.w3.org/1999/xlink" style="isolation:isolate" viewBox="0 0 828 828" width="828pt" height="828pt"><defs><clipPath id="_clipPath_S96ngfYtcQCnPEx2xCkIt65QBqaQ1S88"><rect width="828" height="828"/></clipPath></defs><g clip-path="url(#_clipPath_S96ngfYtcQCnPEx2xCkIt65QBqaQ1S88)"><circle vector-effect="non-scaling-stroke" cx="413.99999999999994" cy="413.99999999999994" r="361.4598035952065" fill="rgb(255,255,255)" stroke-width="1" stroke="rgb(209,209,209)" stroke-linejoin="miter" stroke-linecap="square" stroke-miterlimit="3"/><clipPath id="_clipPath_gSKOdaIWpMQr35uIgHPNv8B4JeTgSioK"><circle vector-effect="non-scaling-stroke" cx="413.99999999999994" cy="413.99999999999994" r="361.4598035952065" fill="rgb(255,255,255)" stroke-width="1" stroke="rgb(209,209,209)" stroke-linejoin="miter" stroke-linecap="square" stroke-miterlimit="3"/></clipPath><g clip-path="url(#_clipPath_gSKOdaIWpMQr35uIgHPNv8B4JeTgSioK)"><g><path d=" M 641.668 368.513 L 622.977 368.513 L 622.977 367.561 L 414 367.561 L 414 460.439 L 545.249 460.439 C 526.058 514.495 474.638 553.318 414 553.318 C 337.039 553.318 274.682 490.961 274.682 414 C 274.682 337.039 337.039 274.682 414 274.682 C 449.514 274.682 481.848 288.057 506.414 309.976 L 572.091 244.299 C 530.644 205.662 475.184 181.804 414 181.804 C 285.746 181.804 181.804 285.746 181.804 414 C 181.804 542.254 285.746 646.196 414 646.196 C 542.254 646.196 646.196 542.254 646.196 414 C 646.196 398.443 644.606 383.257 641.668 368.513 Z " fill="rgb(255,193,7)"/><path d=" M 208.564 305.924 L 284.887 361.884 C 305.518 310.789 355.487 274.682 414 274.682 C 449.514 274.682 481.848 288.057 506.414 309.976 L 572.091 244.299 C 530.644 205.662 475.184 181.804 414 181.804 C 324.79 181.804 247.469 232.144 208.564 305.924 Z " fill="rgb(255,61,0)"/><path d=" M 414 646.196 C 473.953 646.196 528.473 623.244 569.688 585.93 L 497.823 525.106 C 473.721 543.427 444.275 553.337 414 553.318 C 353.594 553.318 302.348 514.82 283.03 461.078 L 207.287 519.394 C 245.704 594.591 323.757 646.196 414 646.196 Z " fill="rgb(76,175,80)"/><path d=" M 641.668 368.513 L 622.977 368.513 L 622.977 367.561 L 414 367.561 L 414 460.439 L 545.249 460.439 C 536.071 486.167 519.565 508.647 497.765 525.106 L 497.811 525.106 L 569.688 585.93 C 564.614 590.504 646.196 530.098 646.196 414 C 646.196 398.443 644.606 383.257 641.668 368.513 Z " fill="rgb(25,118,210)"/></g></g><circle vector-effect="non-scaling-stroke" cx="413.99999999999994" cy="413.99999999999994" r="361.4598035952065" fill="transparent" stroke-width="1" stroke="rgb(209,209,209)" stroke-linejoin="miter" stroke-linecap="square" stroke-miterlimit="3"/></g></svg>