<?xml version="1.0" encoding="UTF-8" standalone="no"?><!-- Generator: Gravit.io --><svg xmlns="http://www.w3.org/2000/svg" xmlns:xlink="http://www.w3.org/1999/xlink" style="isolation:isolate" viewBox="0 0 828 1792" width="828pt" height="1792pt"><defs><clipPath id="_clipPath_vdGovRDlC83m1YXvar1GWzAZzoojvwaH"><rect width="828" height="1792"/></clipPath></defs><g clip-path="url(#_clipPath_vdGovRDlC83m1YXvar1GWzAZzoojvwaH)"><path d="M 67.179 1141 L 760.321 1141 C 773.015 1141 783.321 1151.306 783.321 1164 L 783.321 1390 C 783.321 1402.694 773.015 1413 760.321 1413 L 67.179 1413 C 54.485 1413 44.179 1402.694 44.179 1390 L 44.179 1164 C 44.179 1151.306 54.485 1141 67.179 1141 Z" style="stroke:none;fill:#FFFFFF;stroke-miterlimit:10;"/><path d="M 67.179 1141 L 760.321 1141 C 773.015 1141 783.321 1151.306 783.321 1164 L 783.321 1390 C 783.321 1402.694 773.015 1413 760.321 1413 L 67.179 1413 C 54.485 1413 44.179 1402.694 44.179 1390 L 44.179 1164 C 44.179 1151.306 54.485 1141 67.179 1141 Z" style="fill:none;stroke:#D1D1D1;stroke-width:1;stroke-linecap:square;stroke-miterlimit:2;"/><clipPath id="_clipPath_35jFm0ZlvxHcSziQnFobSODuxkZurMDL"><path d="M 67.179 1141 L 760.321 1141 C 773.015 1141 783.321 1151.306 783.321 1164 L 783.321 1390 C 783.321 1402.694 773.015 1413 760.321 1413 L 67.179 1413 C 54.485 1413 44.179 1402.694 44.179 1390 L 44.179 1164 C 44.179 1151.306 54.485 1141 67.179 1141 Z" style="stroke:none;fill:#FFFFFF;stroke-miterlimit:10;"/><path d="M 67.179 1141 L 760.321 1141 C 773.015 1141 783.321 1151.306 783.321 1164 L 783.321 1390 C 783.321 1402.694 773.015 1413 760.321 1413 L 67.179 1413 C 54.485 1413 44.179 1402.694 44.179 1390 L 44.179 1164 C 44.179 1151.306 54.485 1141 67.179 1141 Z" style="fill:none;stroke:#D1D1D1;stroke-width:1;stroke-linecap:square;stroke-miterlimit:2;"/></clipPath><g clip-path="url(#_clipPath_35jFm0ZlvxHcSziQnFobSODuxkZurMDL)"><text transform="matrix(2.187,0,0,2.187,114.8,1214.413)" style="font-family:'Open Sans';font-weight:400;font-size:24px;font-style:normal;fill:#747474;stroke:none;">COMPARTILHANDO SUA</text><text transform="matrix(2.187,0,0,2.187,170.974,1285.885)" style="font-family:'Open Sans';font-weight:400;font-size:24px;font-style:normal;fill:#747474;stroke:none;">LOCALIZAÇÃO COM </text><text transform="matrix(2.187,0,0,2.187,138.941,1357.358)" style="font-family:'Open Sans';font-weight:400;font-size:24px;font-style:normal;fill:#747474;stroke:none;">MULHERES AO REDOR</text></g><path d="M 66.758 257.978 L 760.742 257.978 C 773.203 257.978 783.321 268.096 783.321 280.557 L 783.321 364.421 C 783.321 376.883 773.203 387 760.742 387 L 66.758 387 C 54.297 387 44.179 376.883 44.179 364.421 L 44.179 280.557 C 44.179 268.096 54.297 257.978 66.758 257.978 Z" style="stroke:none;fill:#FFFFFF;stroke-linecap:square;stroke-miterlimit:2;"/><path d="M 66.758 257.978 L 760.742 257.978 C 773.203 257.978 783.321 268.096 783.321 280.557 L 783.321 364.421 C 783.321 376.883 773.203 387 760.742 387 L 66.758 387 C 54.297 387 44.179 376.883 44.179 364.421 L 44.179 280.557 C 44.179 268.096 54.297 257.978 66.758 257.978 Z" style="fill:none;stroke:#D1D1D1;stroke-width:1;stroke-linecap:square;stroke-miterlimit:2;"/><clipPath id="_clipPath_goO76FY9yRFAm9tstkzRgW7O56hyyUI9"><path d="M 66.758 257.978 L 760.742 257.978 C 773.203 257.978 783.321 268.096 783.321 280.557 L 783.321 364.421 C 783.321 376.883 773.203 387 760.742 387 L 66.758 387 C 54.297 387 44.179 376.883 44.179 364.421 L 44.179 280.557 C 44.179 268.096 54.297 257.978 66.758 257.978 Z" style="stroke:none;fill:#FFFFFF;stroke-linecap:square;stroke-miterlimit:2;"/><path d="M 66.758 257.978 L 760.742 257.978 C 773.203 257.978 783.321 268.096 783.321 280.557 L 783.321 364.421 C 783.321 376.883 773.203 387 760.742 387 L 66.758 387 C 54.297 387 44.179 376.883 44.179 364.421 L 44.179 280.557 C 44.179 268.096 54.297 257.978 66.758 257.978 Z" style="fill:none;stroke:#D1D1D1;stroke-width:1;stroke-linecap:square;stroke-miterlimit:2;"/></clipPath><g clip-path="url(#_clipPath_goO76FY9yRFAm9tstkzRgW7O56hyyUI9)"><text transform="matrix(2.187,0,0,2.187,92.558,344.537)" style="font-family:'Open Sans';font-weight:700;font-size:24px;font-style:normal;fill:#c74343;stroke:none;">SOLICITANDO SOCORRO</text></g><circle vector-effect="non-scaling-stroke" cx="416.5079893475367" cy="770" r="296.64292850861875" fill="rgb(255,255,255)" stroke-width="1" stroke="rgb(209,209,209)" stroke-linejoin="miter" stroke-linecap="square" stroke-miterlimit="3"/><clipPath id="_clipPath_P5VOCbptxVl6ZD1TDOBWtCJCD6Dr5Qjt"><circle vector-effect="non-scaling-stroke" cx="416.5079893475367" cy="770" r="296.64292850861875" fill="rgb(255,255,255)" stroke-width="1" stroke="rgb(209,209,209)" stroke-linejoin="miter" stroke-linecap="square" stroke-miterlimit="3"/></clipPath><g clip-path="url(#_clipPath_P5VOCbptxVl6ZD1TDOBWtCJCD6Dr5Qjt)"><g><path d=" M 265.698 910.694 C 229.829 872.886 210.136 823.581 210.136 771.263 C 210.136 718.945 229.829 669.641 265.698 631.832 L 321.085 687.219 C 299.967 710.222 288.416 739.855 288.416 771.263 C 288.416 802.672 299.978 832.316 321.085 855.308 L 265.698 910.694 Z " fill="rgb(247,143,143)"/><path d=" M 265.851 639.733 L 313.567 687.449 C 293.71 710.853 282.849 740.571 282.936 771.263 C 282.936 802.288 293.742 831.669 313.567 855.077 L 265.851 902.793 C 233.382 866.692 215.479 819.817 215.615 771.263 C 215.615 722.244 233.38 675.953 265.851 639.733 Z  M 265.643 624.029 C 226.533 663.037 204.584 716.025 204.656 771.263 C 204.584 826.501 226.533 879.489 265.643 918.497 L 328.745 855.395 C 306.396 833.106 293.853 802.827 293.895 771.263 C 293.895 738.408 307.211 708.665 328.745 687.131 L 265.643 624.029 Z " fill="rgb(199,67,67)"/><path d=" M 504.669 855.308 C 525.787 832.316 537.338 802.672 537.338 771.263 C 537.338 739.855 525.776 710.222 504.669 687.219 L 560.056 631.832 C 595.925 669.641 615.618 718.945 615.618 771.263 C 615.618 823.581 595.925 872.886 560.056 910.694 L 504.669 855.308 Z " fill="rgb(247,143,143)"/><path d=" M 559.903 639.733 C 592.372 675.835 610.275 722.709 610.139 771.263 C 610.139 820.283 592.374 866.573 559.903 902.793 L 512.187 855.077 C 532.044 831.673 542.905 801.956 542.818 771.263 C 542.905 740.571 532.044 710.853 512.187 687.449 L 559.903 639.733 Z  M 560.111 624.029 L 497.009 687.131 C 519.358 709.42 531.901 739.699 531.859 771.263 C 531.859 804.118 518.544 833.861 497.009 855.395 L 560.111 918.497 C 599.221 879.489 621.17 826.501 621.098 771.263 C 621.17 716.025 599.221 663.037 560.111 624.029 L 560.111 624.029 Z " fill="rgb(199,67,67)"/><circle vector-effect="non-scaling-stroke" cx="412.87704335818944" cy="771.2631779079627" r="49.31541733461631" fill="rgb(247,143,143)"/><path d=" M 412.877 727.427 C 437.053 727.427 456.713 747.088 456.713 771.263 C 456.713 795.439 437.053 815.099 412.877 815.099 C 388.702 815.099 369.041 795.439 369.041 771.263 C 369.041 747.088 388.702 727.427 412.877 727.427 Z  M 412.877 716.468 C 382.612 716.471 358.079 741.009 358.082 771.274 C 358.085 801.54 382.623 826.072 412.888 826.069 C 443.153 826.066 467.686 801.529 467.683 771.263 C 467.68 740.998 443.142 716.465 412.877 716.468 Z " fill="rgb(199,67,67)"/><path d=" M 265.698 910.694 C 229.829 872.886 210.136 823.581 210.136 771.263 C 210.136 718.945 229.829 669.641 265.698 631.832 L 319.967 686.101 C 298.564 709.411 286.849 739.449 286.849 771.263 C 286.849 803.077 298.564 833.116 319.967 856.425 L 265.698 910.694 Z " fill="rgb(247,143,143)"/><path d=" M 265.851 639.733 L 312.449 686.331 C 292.339 710.046 281.369 739.811 281.369 771.263 C 281.369 802.715 292.339 832.48 312.449 856.184 L 265.851 902.782 C 233.381 866.686 215.478 819.814 215.615 771.263 C 215.615 722.244 233.38 675.953 265.851 639.733 Z  M 265.643 624.029 C 227.966 661.706 204.656 713.761 204.656 771.263 C 204.656 828.765 227.966 880.82 265.643 918.497 L 327.638 856.502 C 304.992 833.922 292.283 803.243 292.328 771.263 C 292.328 737.97 305.819 707.833 327.638 686.024 L 265.643 624.029 Z " fill="rgb(199,67,67)"/><path d=" M 505.787 856.425 C 527.19 833.116 538.905 803.077 538.905 771.263 C 538.905 739.449 527.19 709.411 505.787 686.101 L 560.067 631.821 C 595.936 669.651 615.618 718.945 615.618 771.263 C 615.618 823.581 595.925 872.886 560.056 910.694 L 505.787 856.425 Z " fill="rgb(247,143,143)"/><path d=" M 559.903 639.733 C 592.374 675.953 610.139 722.244 610.139 771.263 C 610.139 820.283 592.374 866.573 559.903 902.793 L 513.305 856.195 C 533.415 832.48 544.385 802.715 544.385 771.263 C 544.385 739.811 533.415 710.046 513.305 686.342 L 559.903 639.733 Z  M 560.111 624.029 L 498.116 686.024 C 520.762 708.605 533.471 739.283 533.426 771.263 C 533.426 804.557 519.935 834.694 498.116 856.502 L 560.111 918.497 C 597.788 880.82 621.098 828.765 621.098 771.263 C 621.098 713.761 597.788 661.706 560.111 624.029 Z " fill="rgb(199,67,67)"/></g></g><circle vector-effect="non-scaling-stroke" cx="416.5079893475367" cy="770" r="296.64292850861875" fill="transparent" stroke-width="1" stroke="rgb(209,209,209)" stroke-linejoin="miter" stroke-linecap="square" stroke-miterlimit="3"/></g></svg>