<?xml version="1.0" encoding="UTF-8" standalone="no"?><!-- Generator: Gravit.io --><svg xmlns="http://www.w3.org/2000/svg" xmlns:xlink="http://www.w3.org/1999/xlink" style="isolation:isolate" viewBox="0 0 828 828" width="828pt" height="828pt"><defs><clipPath id="_clipPath_mcL0Ue2z1H8GbWSNyrkBN7JljMa2ZMV2"><rect width="828" height="828"/></clipPath></defs><g clip-path="url(#_clipPath_mcL0Ue2z1H8GbWSNyrkBN7JljMa2ZMV2)"><path d="M 704.293 216.453 L 161.596 216.453 C 123.441 216.453 92.463 247.431 92.463 285.587 L 92.463 542.413 C 92.463 580.569 123.441 611.547 161.596 611.547 L 773.426 611.547 L 773.426 285.587 C 773.426 247.431 742.449 216.453 704.293 216.453 Z" style="stroke:none;fill:#FFFFFF;stroke-miterlimit:10;"/><path d="M 704.293 216.453 L 161.596 216.453 C 123.441 216.453 92.463 247.431 92.463 285.587 L 92.463 542.413 C 92.463 580.569 123.441 611.547 161.596 611.547 L 773.426 611.547 L 773.426 285.587 C 773.426 247.431 742.449 216.453 704.293 216.453 Z" style="fill:none;stroke:#D1D1D1;stroke-width:2;stroke-linecap:square;stroke-miterlimit:2;"/><clipPath id="_clipPath_6CoUa6TloheGQoGwNcPd9G1KuHwA5xAc"><path d="M 704.293 216.453 L 161.596 216.453 C 123.441 216.453 92.463 247.431 92.463 285.587 L 92.463 542.413 C 92.463 580.569 123.441 611.547 161.596 611.547 L 773.426 611.547 L 773.426 285.587 C 773.426 247.431 742.449 216.453 704.293 216.453 Z" style="stroke:none;fill:#FFFFFF;stroke-miterlimit:10;"/><path d="M 704.293 216.453 L 161.596 216.453 C 123.441 216.453 92.463 247.431 92.463 285.587 L 92.463 542.413 C 92.463 580.569 123.441 611.547 161.596 611.547 L 773.426 611.547 L 773.426 285.587 C 773.426 247.431 742.449 216.453 704.293 216.453 Z" style="fill:none;stroke:#D1D1D1;stroke-width:2;stroke-linecap:square;stroke-miterlimit:2;"/></clipPath><g clip-path="url(#_clipPath_6CoUa6TloheGQoGwNcPd9G1KuHwA5xAc)"><path d="M 522.493 343.32 L 183.57 343.32 C 172.565 343.32 163.631 352.254 163.631 363.258 L 163.631 386.946 C 163.631 397.95 172.565 406.884 183.57 406.884 L 522.493 406.884 C 533.498 406.884 542.432 397.95 542.432 386.946 L 542.432 363.258 C 542.432 352.254 533.498 343.32 522.493 343.32 Z" style="stroke:none;fill:#E8724A;stroke-linecap:square;stroke-miterlimit:2;"/><path d="M 689.462 334.752 L 181.042 334.752 C 165.923 334.752 153.648 347.027 153.648 362.146 L 153.648 388.058 C 153.648 403.177 165.923 415.452 181.042 415.452 L 689.462 415.452 C 704.582 415.452 716.856 403.177 716.856 388.058 L 716.856 362.146 C 716.856 347.027 704.582 334.752 689.462 334.752 Z" style="fill:none;stroke:#D1D1D1;stroke-width:0.5;stroke-linecap:square;stroke-miterlimit:2;"/><text transform="matrix(6.92,0,0,6.92,152.443,311.81)" style="font-family:'Open Sans';font-weight:400;font-size:7px;font-style:normal;fill:#8b8b8b;stroke:none;">Local Perigoso</text><text transform="matrix(6.92,0,0,6.92,155.166,464.971)" style="font-family:'Open Sans';font-weight:400;font-size:6px;font-style:normal;fill:#8b8b8b;stroke:none;">Área pouco movimentada, </text><text transform="matrix(6.92,0,0,6.92,155.166,521.515)" style="font-family:'Open Sans';font-weight:400;font-size:6px;font-style:normal;fill:#8b8b8b;stroke:none;">poucos comércios abertos </text><text transform="matrix(6.92,0,0,6.92,155.166,578.058)" style="font-family:'Open Sans';font-weight:400;font-size:6px;font-style:normal;fill:#8b8b8b;stroke:none;">esse hora</text></g></g></svg>